<?xml version="1.0" encoding="UTF-8" standalone="no"?>
<!-- Created with Inkscape (http://www.inkscape.org/) -->

<svg
   xmlns:dc="http://purl.org/dc/elements/1.1/"
   xmlns:cc="http://creativecommons.org/ns#"
   xmlns:rdf="http://www.w3.org/1999/02/22-rdf-syntax-ns#"
   xmlns:svg="http://www.w3.org/2000/svg"
   xmlns="http://www.w3.org/2000/svg"
   xmlns:sodipodi="http://sodipodi.sourceforge.net/DTD/sodipodi-0.dtd"
   xmlns:inkscape="http://www.inkscape.org/namespaces/inkscape"
   width="512"
   height="512"
   viewBox="0 0 512 512.00002"
   id="svg4138"
   version="1.1"
   inkscape:version="0.91 r13725"
   sodipodi:docname="settings.svg"
   inkscape:export-filename="S:\Projects\lab-rat\assets-raw\raw\settings-framed.png"
   inkscape:export-xdpi="5.625"
   inkscape:export-ydpi="5.625">
  <defs
     id="defs4140" />
  <sodipodi:namedview
     id="base"
     pagecolor="#ff0000"
     bordercolor="#666666"
     borderopacity="1.0"
     inkscape:pageopacity="0"
     inkscape:pageshadow="2"
     inkscape:zoom="0.81687672"
     inkscape:cx="102.53632"
     inkscape:cy="312.14071"
     inkscape:document-units="px"
     inkscape:current-layer="layer1"
     showgrid="false"
     units="px"
     inkscape:showpageshadow="false"
     inkscape:window-width="1858"
     inkscape:window-height="1058"
     inkscape:window-x="54"
     inkscape:window-y="-8"
     inkscape:window-maximized="1" />
  <metadata
     id="metadata4143">
    <rdf:RDF>
      <cc:Work
         rdf:about="">
        <dc:format>image/svg+xml</dc:format>
        <dc:type
           rdf:resource="http://purl.org/dc/dcmitype/StillImage" />
        <dc:title></dc:title>
      </cc:Work>
    </rdf:RDF>
  </metadata>
  <g
     inkscape:label="Layer 1"
     inkscape:groupmode="layer"
     id="layer1"
     transform="translate(0,-540.36216)">
    <path
       style="opacity:1;fill:#ffffff;fill-opacity:1;fill-rule:nonzero;stroke:#ffffff;stroke-width:20;stroke-linecap:round;stroke-linejoin:miter;stroke-miterlimit:4;stroke-dasharray:none;stroke-dashoffset:0;stroke-opacity:1"
       d="M 57.602798,646.86283 100.34528,713.12214 87.075932,745.15721 10.000027,761.78615 10,830.93814 l 77.075911,16.62893 13.269379,32.03508 -42.742479,66.25933 48.897829,48.89788 66.25935,-42.74251 32.03508,13.26937 16.6289,77.07598 69.15201,0 16.62893,-77.07599 32.03509,-13.26938 66.25938,42.74253 48.89782,-48.89785 -42.7425,-66.25937 13.26937,-32.03509 77.07592,-16.62892 0,-69.15199 -77.07592,-16.62893 -13.26937,-32.03506 42.74247,-66.25932 -48.89784,-48.89786 -66.25931,42.74248 -32.0351,-13.26936 -16.62895,-77.07591 -69.15198,-2e-5 -16.62892,77.07592 -32.0351,13.26938 -66.25932,-42.74248 z m 133.846072,84.94823 64.5511,-26.73796 64.55113,26.73794 26.73793,64.55111 -26.73794,64.5511 -64.5511,26.73795 -64.55112,-26.73795 -26.73794,-64.55109 z"
       id="path4724"
       inkscape:connector-curvature="0"
       sodipodi:nodetypes="cccccccccccccccccccccccccccccccccccccccccc"
       inkscape:export-xdpi="5.6300001"
       inkscape:export-ydpi="5.6300001" />
  </g>
</svg>
